General
Unique ID                                : 205346068381397931214301143083181878433 (0x9A7C36D630D8A61E336ED58566172CA1)
Complete name                            : The.Matrix.1999.1080p.HMAX.WEB-DL.DD2.0.H.264.pt-BR.ENG-vnlls.mkv
Format                                   : Matroska
Format version                           : Version 4
File size                                : 8.95 GiB
Duration                                 : 2 h 16 min
Overall bit rate mode                    : Variable
Overall bit rate                         : 9 399 kb/s
Frame rate                               : 23.976 FPS
Writing application                      : mkvmerge v82.0 ('I'm The President') 64-bit
Writing library                          : libebml v1.4.5 + libmatroska v1.7.1

Video
ID                                       : 1
Format                                   : AVC
Format/Info                              : Advanced Video Codec
Format profile                           : High@L4
Format settings                          : CABAC / 4 Ref Frames
Format settings, CABAC                   : Yes
Format settings, Reference frames        : 4 frames
Codec ID                                 : V_MPEG4/ISO/AVC
Duration                                 : 2 h 16 min
Bit rate mode                            : Variable
Bit rate                                 : 8 250 kb/s
Maximum bit rate                         : 12.4 Mb/s
Width                                    : 1 920 pixels
Height                                   : 816 pixels
Display aspect ratio                     : 2.35:1
Frame rate mode                          : Constant
Frame rate                               : 23.976 (24000/1001) FPS
Color space                              : YUV
Chroma subsampling                       : 4:2:0
Bit depth                                : 8 bits
Scan type                                : Progressive
Bits/(Pixel*Frame)                       : 0.220
Stream size                              : 7.85 GiB (88%)
Writing library                          : x264 core 157 r2965 861cec4
Encoding settings                        : cabac=1 / ref=4 / deblock=1:0:0 / analyse=0x3:0x113 / me=hex / subme=7 / psy=1 / psy_rd=1.00:0.00 / mixed_ref=1 / me_range=16 / chroma_me=1 / trellis=1 / 8x8dct=1 / cqm=0 / deadzone=21,11 / fast_pskip=1 / chroma_qp_offset=-2 / threads=25 / lookahead_threads=4 / sliced_threads=0 / nr=0 / decimate=1 / interlaced=0 / bluray_compat=0 / constrained_intra=0 / bframes=3 / b_pyramid=2 / b_adapt=1 / b_bias=0 / direct=1 / weightb=1 / open_gop=0 / weightp=2 / keyint=96 / keyint_min=96 / scenecut=40 / intra_refresh=0 / rc_lookahead=40 / rc=2pass / mbtree=1 / bitrate=8250 / ratetol=1.0 / qcomp=0.60 / qpmin=0 / qpmax=69 / qpstep=4 / cplxblur=20.0 / qblur=0.5 / vbv_maxrate=12375 / vbv_bufsize=6187 / nal_hrd=vbr / filler=0 / ip_ratio=1.40 / aq=1:1.00
Default                                  : Yes
Forced                                   : No
Color range                              : Limited
Color primaries                          : BT.709
Transfer characteristics                 : BT.709
Matrix coefficients                      : BT.709

Audio #1
ID                                       : 2
Format                                   : AC-3
Format/Info                              : Audio Coding 3
Commercial name                          : Dolby Digital
Codec ID                                 : A_AC3
Duration                                 : 2 h 16 min
Bit rate mode                            : Constant
Bit rate                                 : 384 kb/s
Channel(s)                               : 2 channels
Channel layout                           : L R
Sampling rate                            : 48.0 kHz
Frame rate                               : 31.250 FPS (1536 SPF)
Compression mode                         : Lossy
Stream size                              : 374 MiB (4%)
Title                                    : Brazilian
Language                                 : Portuguese (BR)
Service kind                             : Complete Main
Default                                  : Yes
Forced                                   : No

Audio #2
ID                                       : 3
Format                                   : E-AC-3 JOC
Format/Info                              : Enhanced AC-3 with Joint Object Coding
Commercial name                          : Dolby Digital Plus with Dolby Atmos
Codec ID                                 : A_EAC3
Duration                                 : 2 h 16 min
Bit rate mode                            : Constant
Bit rate                                 : 768 kb/s
Channel(s)                               : 6 channels
Channel layout                           : L R C LFE Ls Rs
Sampling rate                            : 48.0 kHz
Frame rate                               : 31.250 FPS (1536 SPF)
Compression mode                         : Lossy
Stream size                              : 749 MiB (8%)
Language                                 : English
Service kind                             : Complete Main
Default                                  : No
Forced                                   : No
Complexity index                         : 16
Number of dynamic objects                : 15
Bed channel count                        : 1 channel
Bed channel configuration                : LFE

Text #1
ID                                       : 4
Format                                   : UTF-8
Codec ID                                 : S_TEXT/UTF8
Codec ID/Info                            : UTF-8 Plain Text
Duration                                 : 2 h 7 min
Bit rate                                 : 0 b/s
Frame rate                               : 0.003 FPS
Count of elements                        : 20
Stream size                              : 417 Bytes (0%)
Title                                    : Brazilian (Forced)
Language                                 : Portuguese (BR)
Default                                  : Yes
Forced                                   : Yes

Text #2
ID                                       : 5
Format                                   : UTF-8
Codec ID                                 : S_TEXT/UTF8
Codec ID/Info                            : UTF-8 Plain Text
Duration                                 : 2 h 7 min
Bit rate                                 : 41 b/s
Frame rate                               : 0.170 FPS
Count of elements                        : 1302
Stream size                              : 38.6 KiB (0%)
Title                                    : Brazilian
Language                                 : Portuguese (BR)
Default                                  : No
Forced                                   : No

Text #3
ID                                       : 6
Format                                   : UTF-8
Codec ID                                 : S_TEXT/UTF8
Codec ID/Info                            : UTF-8 Plain Text
Duration                                 : 2 h 15 min
Bit rate                                 : 41 b/s
Frame rate                               : 0.163 FPS
Count of elements                        : 1321
Stream size                              : 41.1 KiB (0%)
Title                                    : European
Language                                 : Portuguese (PT)
Default                                  : No
Forced                                   : No

Text #4
ID                                       : 7
Format                                   : UTF-8
Codec ID                                 : S_TEXT/UTF8
Codec ID/Info                            : UTF-8 Plain Text
Duration                                 : 2 h 14 min
Bit rate                                 : 44 b/s
Frame rate                               : 0.227 FPS
Count of elements                        : 1834
Stream size                              : 44.1 KiB (0%)
Title                                    : SDH
Language                                 : English
Default                                  : No
Forced                                   : No

Text #5
ID                                       : 8
Format                                   : UTF-8
Codec ID                                 : S_TEXT/UTF8
Codec ID/Info                            : UTF-8 Plain Text
Duration                                 : 2 h 14 min
Bit rate                                 : 44 b/s
Frame rate                               : 0.227 FPS
Count of elements                        : 1834
Stream size                              : 44.1 KiB (0%)
Language                                 : English
Default                                  : No
Forced                                   : No

Text #6
ID                                       : 9
Format                                   : UTF-8
Codec ID                                 : S_TEXT/UTF8
Codec ID/Info                            : UTF-8 Plain Text
Duration                                 : 2 h 8 min
Bit rate                                 : 65 b/s
Frame rate                               : 0.125 FPS
Count of elements                        : 959
Stream size                              : 61.1 KiB (0%)
Language                                 : Bulgarian
Default                                  : No
Forced                                   : No

Text #7
ID                                       : 10
Format                                   : UTF-8
Codec ID                                 : S_TEXT/UTF8
Codec ID/Info                            : UTF-8 Plain Text
Duration                                 : 2 h 7 min
Bit rate                                 : 41 b/s
Frame rate                               : 0.131 FPS
Count of elements                        : 1009
Stream size                              : 38.6 KiB (0%)
Title                                    : European (SDH)
Language                                 : Catalan (ES)
Default                                  : No
Forced                                   : No

Text #8
ID                                       : 11
Format                                   : UTF-8
Codec ID                                 : S_TEXT/UTF8
Codec ID/Info                            : UTF-8 Plain Text
Duration                                 : 2 h 7 min
Bit rate                                 : 34 b/s
Frame rate                               : 0.177 FPS
Count of elements                        : 1355
Stream size                              : 32.1 KiB (0%)
Language                                 : Czech
Default                                  : No
Forced                                   : No

Text #9
ID                                       : 12
Format                                   : UTF-8
Codec ID                                 : S_TEXT/UTF8
Codec ID/Info                            : UTF-8 Plain Text
Duration                                 : 2 h 15 min
Bit rate                                 : 35 b/s
Frame rate                               : 0.116 FPS
Count of elements                        : 942
Stream size                              : 35.6 KiB (0%)
Language                                 : Danish
Default                                  : No
Forced                                   : No

Text #10
ID                                       : 13
Format                                   : UTF-8
Codec ID                                 : S_TEXT/UTF8
Codec ID/Info                            : UTF-8 Plain Text
Duration                                 : 2 h 7 min
Bit rate                                 : 40 b/s
Frame rate                               : 0.171 FPS
Count of elements                        : 1310
Stream size                              : 38.1 KiB (0%)
Title                                    : Latin American
Language                                 : Spanish (Latin America)
Default                                  : No
Forced                                   : No

Text #11
ID                                       : 14
Format                                   : UTF-8
Codec ID                                 : S_TEXT/UTF8
Codec ID/Info                            : UTF-8 Plain Text
Duration                                 : 2 h 7 min
Bit rate                                 : 38 b/s
Frame rate                               : 0.173 FPS
Count of elements                        : 1328
Stream size                              : 35.9 KiB (0%)
Title                                    : European
Language                                 : Spanish (ES)
Default                                  : No
Forced                                   : No

Text #12
ID                                       : 15
Format                                   : UTF-8
Codec ID                                 : S_TEXT/UTF8
Codec ID/Info                            : UTF-8 Plain Text
Duration                                 : 2 h 7 min
Bit rate                                 : 37 b/s
Frame rate                               : 0.169 FPS
Count of elements                        : 1299
Stream size                              : 35.5 KiB (0%)
Title                                    : Estonia
Language                                 : Estonian (EE)
Default                                  : No
Forced                                   : No

Text #13
ID                                       : 16
Format                                   : UTF-8
Codec ID                                 : S_TEXT/UTF8
Codec ID/Info                            : UTF-8 Plain Text
Duration                                 : 2 h 7 min
Bit rate                                 : 36 b/s
Frame rate                               : 0.108 FPS
Count of elements                        : 827
Stream size                              : 34.2 KiB (0%)
Language                                 : Finnish
Default                                  : No
Forced                                   : No

Text #14
ID                                       : 17
Format                                   : UTF-8
Codec ID                                 : S_TEXT/UTF8
Codec ID/Info                            : UTF-8 Plain Text
Duration                                 : 2 h 8 min
Bit rate                                 : 37 b/s
Frame rate                               : 0.180 FPS
Count of elements                        : 1385
Stream size                              : 35.6 KiB (0%)
Language                                 : Croatian
Default                                  : No
Forced                                   : No

Text #15
ID                                       : 18
Format                                   : UTF-8
Codec ID                                 : S_TEXT/UTF8
Codec ID/Info                            : UTF-8 Plain Text
Duration                                 : 2 h 8 min
Bit rate                                 : 36 b/s
Frame rate                               : 0.180 FPS
Count of elements                        : 1385
Stream size                              : 34.3 KiB (0%)
Language                                 : Hungarian
Default                                  : No
Forced                                   : No

Text #16
ID                                       : 19
Format                                   : UTF-8
Codec ID                                 : S_TEXT/UTF8
Codec ID/Info                            : UTF-8 Plain Text
Duration                                 : 2 h 7 min
Bit rate                                 : 46 b/s
Frame rate                               : 0.177 FPS
Count of elements                        : 1362
Stream size                              : 43.2 KiB (0%)
Language                                 : Icelandic
Default                                  : No
Forced                                   : No

Text #17
ID                                       : 20
Format                                   : UTF-8
Codec ID                                 : S_TEXT/UTF8
Codec ID/Info                            : UTF-8 Plain Text
Duration                                 : 2 h 15 min
Bit rate                                 : 38 b/s
Frame rate                               : 0.139 FPS
Count of elements                        : 1130
Stream size                              : 37.7 KiB (0%)
Language                                 : Lithuanian
Default                                  : No
Forced                                   : No

Text #18
ID                                       : 21
Format                                   : UTF-8
Codec ID                                 : S_TEXT/UTF8
Codec ID/Info                            : UTF-8 Plain Text
Duration                                 : 2 h 7 min
Bit rate                                 : 40 b/s
Frame rate                               : 0.167 FPS
Count of elements                        : 1281
Stream size                              : 37.5 KiB (0%)
Language                                 : Latvian
Default                                  : No
Forced                                   : No

Text #19
ID                                       : 22
Format                                   : UTF-8
Codec ID                                 : S_TEXT/UTF8
Codec ID/Info                            : UTF-8 Plain Text
Duration                                 : 2 h 15 min
Bit rate                                 : 60 b/s
Frame rate                               : 0.162 FPS
Count of elements                        : 1318
Stream size                              : 59.8 KiB (0%)
Language                                 : Macedonian
Default                                  : No
Forced                                   : No

Text #20
ID                                       : 23
Format                                   : UTF-8
Codec ID                                 : S_TEXT/UTF8
Codec ID/Info                            : UTF-8 Plain Text
Duration                                 : 2 h 7 min
Bit rate                                 : 36 b/s
Frame rate                               : 0.111 FPS
Count of elements                        : 855
Stream size                              : 33.8 KiB (0%)
Language                                 : Dutch
Default                                  : No
Forced                                   : No

Text #21
ID                                       : 24
Format                                   : UTF-8
Codec ID                                 : S_TEXT/UTF8
Codec ID/Info                            : UTF-8 Plain Text
Duration                                 : 2 h 7 min
Bit rate                                 : 40 b/s
Frame rate                               : 0.129 FPS
Count of elements                        : 991
Stream size                              : 38.4 KiB (0%)
Language                                 : Norwegian
Default                                  : No
Forced                                   : No

Text #22
ID                                       : 25
Format                                   : UTF-8
Codec ID                                 : S_TEXT/UTF8
Codec ID/Info                            : UTF-8 Plain Text
Duration                                 : 2 h 7 min
Bit rate                                 : 31 b/s
Frame rate                               : 0.180 FPS
Count of elements                        : 1384
Stream size                              : 29.9 KiB (0%)
Language                                 : Polish
Default                                  : No
Forced                                   : No

Text #23
ID                                       : 26
Format                                   : UTF-8
Codec ID                                 : S_TEXT/UTF8
Codec ID/Info                            : UTF-8 Plain Text
Duration                                 : 2 h 7 min
Bit rate                                 : 39 b/s
Frame rate                               : 0.178 FPS
Count of elements                        : 1366
Stream size                              : 36.9 KiB (0%)
Language                                 : Romanian
Default                                  : No
Forced                                   : No

Text #24
ID                                       : 27
Format                                   : UTF-8
Codec ID                                 : S_TEXT/UTF8
Codec ID/Info                            : UTF-8 Plain Text
Duration                                 : 2 h 8 min
Bit rate                                 : 68 b/s
Frame rate                               : 0.178 FPS
Count of elements                        : 1365
Stream size                              : 63.8 KiB (0%)
Language                                 : Russian
Default                                  : No
Forced                                   : No

Text #25
ID                                       : 28
Format                                   : UTF-8
Codec ID                                 : S_TEXT/UTF8
Codec ID/Info                            : UTF-8 Plain Text
Duration                                 : 2 h 15 min
Bit rate                                 : 37 b/s
Frame rate                               : 0.162 FPS
Count of elements                        : 1317
Stream size                              : 36.8 KiB (0%)
Language                                 : Slovak
Default                                  : No
Forced                                   : No

Text #26
ID                                       : 29
Format                                   : UTF-8
Codec ID                                 : S_TEXT/UTF8
Codec ID/Info                            : UTF-8 Plain Text
Duration                                 : 2 h 15 min
Bit rate                                 : 35 b/s
Frame rate                               : 0.170 FPS
Count of elements                        : 1381
Stream size                              : 34.7 KiB (0%)
Title                                    : Slovenia
Language                                 : Slovenian (SI)
Default                                  : No
Forced                                   : No

Text #27
ID                                       : 30
Format                                   : UTF-8
Codec ID                                 : S_TEXT/UTF8
Codec ID/Info                            : UTF-8 Plain Text
Duration                                 : 2 h 8 min
Bit rate                                 : 39 b/s
Frame rate                               : 0.177 FPS
Count of elements                        : 1357
Stream size                              : 37.4 KiB (0%)
Title                                    : Latin, Serbia
Language                                 : Serbian-Latn-RS
Default                                  : No
Forced                                   : No

Text #28
ID                                       : 31
Format                                   : UTF-8
Codec ID                                 : S_TEXT/UTF8
Codec ID/Info                            : UTF-8 Plain Text
Duration                                 : 2 h 7 min
Bit rate                                 : 36 b/s
Frame rate                               : 0.113 FPS
Count of elements                        : 870
Stream size                              : 34.1 KiB (0%)
Language                                 : Swedish
Default                                  : No
Forced                                   : No

ReportBy                                 : MediaInfoLib - v23.10